<?xml version="1.0" encoding="UTF-8"?><svg xmlns="http://www.w3.org/2000/svg" viewBox="0 0 458.07 665.14"><g id="a"/><g id="b"><g id="c"><path d="M446.73,210.03c-13.31-2.47-26.87-3.68-40.44-3.62-38.06,.16-76.51,10.4-111.32,31.65-9.42,5.75-18.22,12.13-26.43,19,13.56-25.61,22.49-48.82,30.85-81.3,6.59-25.63,23.47-110.91-36.3-132.42-36.47-13.14-81.24,3.24-98.58,12.15-.25-.41-.48-.81-.74-1.23C144.88,18.81,93.37,34.91,69.87,7.5c-8.64-10.07-24.45-10.03-32.81,.28-11.52,14.22-15.41,33.85-11.45,51.62-2.46-.09-5.15,.32-6.38,.95-25.76,13.21-25.95,54.41,1.29,66.84,20.25,7.96,22.81,13.37,16.79,34.16-6.85,29.41,26.49,54.57,52.78,41.52,1.05-.52,3.03-2.03,4.68-3.68,12.36,14.07,31.18,22.64,50.03,21.05,12.76-1.07,21.69-13.56,18.74-26.02-11.32-47.83,37-51.84,16.3-108.07,13.35-6.25,41.33-18.41,68.65-8.05,7.89,2.98,13.35,9.32,16.73,19.36,12.09,36.02-7.3,107-46.11,168.76-15.4,24.51-32.6,46.19-50.82,69.14-44.96,56.66-91.44,115.24-111.11,219.49-15.82,83.85-8.58,100.37,13.65,105.69,.93,.22,1.86,.43,2.74,.74,5.95,2.12,20.21,3.86,35.61,3.86,16.21,0,33.68-1.92,44.07-7.32,6.27-3.27,10.22-7.72,11.73-13.23,1.58-5.77-.2-12.99-4.75-30.22-10.98-41.64-33.84-128.31,14.2-205.3,.14-.23,.28-.45,.43-.68-.2,4.14-.31,8.28-.32,12.43,.01,44.61,11.82,89.82,36.61,130.78,24.79,40.96,59.37,72.38,98.89,93.07,14.06,7.33,28.73,13.33,43.85,17.94,9.2,2.81,18.93-3.06,20.72-12.51,2.96-15.59,4.43-31.47,4.43-47.37-.01-44.61-11.84-89.72-36.6-130.61-23.87-39.43-56.68-69.94-94.31-90.66,1.21,.02,2.41,.05,3.62,.05,38.06-.16,76.6-10.38,111.47-31.67,34.87-21.29,61.56-50.9,79.09-84.69,6.21-12.02,11.28-24.55,15.17-37.48,2.37-7.86-2.67-16.14-10.75-17.64ZM58.05,130.34c-4.1-10.43-2.1-21.75,4.28-30.02,25.13,10.89,28.16,20.2,19.92,49.16-10.55-1.53-20.01-8.51-24.2-19.14Zm237.46,370.19c14.02,23.16,21.78,48.3,23.77,73.62,.28,3.59-3.76,6.03-6.81,4.11-21.46-13.53-40.13-32.06-54.15-55.22-14.02-23.16-21.78-48.29-23.82-73.58-.29-3.59,3.74-6.04,6.8-4.12,21.51,13.5,40.18,32.04,54.2,55.2Zm90.12-237.24c-11.47,18.36-27.22,34.35-46.94,46.38-19.71,12.04-41.14,18.74-62.7,20.56-3.06,.26-5.17-3.17-3.54-5.79,11.45-18.4,27.2-34.39,46.92-46.43,19.72-12.04,41.14-18.75,62.74-20.53,3.06-.25,5.16,3.19,3.53,5.79Z"/></g></g></svg>