<?xml version="1.0" encoding="UTF-8"?><svg xmlns="http://www.w3.org/2000/svg" viewBox="0 0 64.37 67.29"><defs><style>.d{fill:#f0efef;}</style></defs><g id="a"/><g id="b"><g id="c"><g><rect class="d" x="30.72" width="2.93" height="11.7"/><rect class="d" x="12.1" y="7.71" width="2.93" height="11.7" transform="translate(-5.62 13.57) rotate(-45)"/><rect class="d" y="30.72" width="11.7" height="2.93"/><rect class="d" x="7.71" y="49.34" width="11.7" height="2.93" transform="translate(-31.95 24.47) rotate(-45)"/><rect class="d" x="49.34" y="44.95" width="2.93" height="11.7" transform="translate(-21.04 50.8) rotate(-45)"/><rect class="d" x="52.66" y="30.72" width="11.7" height="2.93"/><rect class="d" x="44.95" y="12.1" width="11.7" height="2.93" transform="translate(5.29 39.9) rotate(-45)"/><path class="d" d="M35.11,67.29h-5.85c-.39,0-.76-.15-1.03-.43l-1.03-1.03h-.86v-2.93h1.46c.39,0,.76,.15,1.03,.43l1.03,1.03h4.64l1.03-1.03c.27-.27,.65-.43,1.03-.43h1.46v2.93h-.86l-1.03,1.03c-.27,.27-.65,.43-1.03,.43Z"/><rect class="d" x="23.41" y="54.13" width="17.55" height="2.93"/><rect class="d" x="24.87" y="58.52" width="14.63" height="2.93"/><path class="d" d="M40.96,52.66h-2.93v-2.93c0-3.1,1.1-5.86,3.17-7.97,2.75-2.81,4.14-6.03,4.14-9.58,0-7.26-5.91-13.17-13.17-13.17s-13.17,5.91-13.17,13.17c0,3.55,1.39,6.78,4.14,9.58,2.07,2.12,3.17,4.87,3.17,7.97v2.93h-2.93v-2.93c0-2.32-.81-4.37-2.33-5.93-3.3-3.37-4.98-7.28-4.98-11.63,0-8.87,7.22-16.09,16.09-16.09s16.09,7.22,16.09,16.09c0,4.34-1.68,8.26-4.98,11.63-1.53,1.56-2.33,3.61-2.33,5.93v2.93Z"/><rect class="d" x="30.72" y="40.96" width="2.93" height="11.7"/><path class="d" d="M32.18,42.42c-.37,0-.75-.14-1.03-.43l-2.93-2.93,2.07-2.07,1.89,1.89,1.89-1.89,2.07,2.07-2.93,2.93c-.29,.29-.66,.43-1.03,.43Z"/><rect class="d" x="21.76" y="7.63" width="2.93" height="5.85" transform="translate(-2.27 9.69) rotate(-22.5)"/><rect class="d" x="9.1" y="20.3" width="2.93" height="5.85" transform="translate(-14.94 24.1) rotate(-67.5)"/><rect class="d" x="7.63" y="39.68" width="5.85" height="2.93" transform="translate(-14.94 7.18) rotate(-22.51)"/><rect class="d" x="52.35" y="38.21" width="2.93" height="5.85" transform="translate(-4.79 75.12) rotate(-67.51)"/><rect class="d" x="50.88" y="21.76" width="5.85" height="2.93" transform="translate(-4.79 22.37) rotate(-22.51)"/><rect class="d" x="38.22" y="9.1" width="5.85" height="2.93" transform="translate(15.64 44.52) rotate(-67.49)"/></g></g></g></svg>