<?xml version="1.0" encoding="UTF-8"?><svg xmlns="http://www.w3.org/2000/svg" viewBox="0 0 37.73 28.3"><defs><style>.d{fill:#f5f3ee;}</style></defs><g id="a"/><g id="b"><g id="c"><path class="d" d="M34.2,0c1.95,0,3.54,1.58,3.54,3.54,0,1.11-.52,2.16-1.42,2.83l-16.04,12.03c-.84,.63-1.99,.63-2.83,0L1.42,6.37c-.89-.67-1.42-1.72-1.42-2.83C0,1.58,1.58,0,3.54,0h30.66ZM16.04,20.28c1.68,1.26,3.98,1.26,5.66,0l16.04-12.03v15.33c0,2.6-2.12,4.72-4.72,4.72H4.72c-2.61,0-4.72-2.12-4.72-4.72V8.25l16.04,12.03Z"/></g></g></svg>