<?xml version="1.0" encoding="UTF-8"?><svg xmlns="http://www.w3.org/2000/svg" viewBox="0 0 48.63 67.45"><defs><style>.d{fill:#325042;}</style></defs><g id="a"/><g id="b"><g id="c"><g><path class="d" d="M7.52,22.08c-.17,0-.34,0-.5-.02-1.97-.12-3.76-.99-5.04-2.44C.97,18.48-.18,16.41,.02,13.06,.18,10.6,1.39,4.43,9.28,.41c.49-.25,1.08-.19,1.51,.14,.43,.34,.63,.89,.51,1.43-.6,2.64,.38,4.46,1.52,6.57,.99,1.83,2.01,3.72,1.86,6.15-.34,5.47-3.96,7.37-7.15,7.37Zm.8-17.8C3.73,7.5,2.96,11.51,2.85,13.24c-.12,1.89,.32,3.45,1.26,4.52,.78,.88,1.87,1.41,3.09,1.49,1.3,.09,4.37-.21,4.65-4.71,.1-1.62-.65-3.01-1.52-4.63-.88-1.62-1.83-3.4-2.01-5.62Z"/><path class="d" d="M7.7,66.65c-1.76,0-3.37-1.32-3.91-3.19-.72-2.47-1.83-21.07-1.83-28.54l1.42-14.28c.08-.78,.76-1.33,1.55-1.27,.78,.08,1.34,.77,1.27,1.55l-1.41,14.14c0,7.99,1.18,25.73,1.72,27.61,.19,.66,.71,1.15,1.2,1.16,.48,0,.99-.5,1.18-1.15,.51-1.75,1.56-19.18,1.56-27.75l-1.41-14c-.08-.78,.49-1.47,1.27-1.55,.79-.06,1.47,.49,1.55,1.27l1.41,14.14c0,7.3-.95,26.22-1.67,28.68-.54,1.87-2.15,3.18-3.9,3.19Z"/><rect class="d" x="3.37" y="33.51" width="8.49" height="2.83"/><path class="d" d="M26.47,67.45h-3.77c-2.91,0-5.19-1.86-5.19-4.24V17.68L24.59,0l7.07,17.68V63.2c0,2.38-2.28,4.24-5.18,4.24Zm-6.13-49.23V63.2c0,.67,1.01,1.41,2.36,1.41h3.77c1.35,0,2.36-.75,2.36-1.41V18.22l-4.24-10.61-4.24,10.61Z"/><path class="d" d="M30.24,60.38h-11.31c-.78,0-1.41-.63-1.41-1.41s.63-1.41,1.41-1.41h11.31c.78,0,1.41,.63,1.41,1.41s-.63,1.41-1.41,1.41Z"/><polygon class="d" points="27.41 22.36 24.59 20.95 21.76 22.36 18.3 20.63 19.56 18.1 21.76 19.2 24.59 17.78 27.41 19.2 29.61 18.1 30.87 20.63 27.41 22.36"/><path class="d" d="M48.63,66.03h-12.73V2.39h12.73v63.64Zm-9.9-2.83h7.07V5.22h-7.07V63.2Z"/><rect class="d" x="35.9" y="8.05" width="7.07" height="2.83"/><rect class="d" x="35.9" y="15.12" width="7.07" height="2.83"/><rect class="d" x="35.9" y="22.19" width="7.07" height="2.83"/><rect class="d" x="35.9" y="29.26" width="7.07" height="2.83"/><rect class="d" x="35.9" y="36.33" width="7.07" height="2.83"/><rect class="d" x="35.9" y="43.41" width="7.07" height="2.83"/><rect class="d" x="35.9" y="50.48" width="7.07" height="2.83"/><rect class="d" x="35.9" y="57.55" width="7.07" height="2.83"/></g></g></g></svg>