<?xml version="1.0" encoding="UTF-8"?><svg xmlns="http://www.w3.org/2000/svg" viewBox="0 0 57.67 67.59"><defs><style>.d{fill:#325042;}</style></defs><g id="a"/><g id="b"><g id="c"><g><path class="d" d="M36.61,56.33c-.27,0-.55-.08-.78-.24l-8.45-5.63c-.39-.26-.63-.7-.63-1.17v-1.41c0-.55,.32-1.05,.82-1.28l18.31-8.45c.44-.21,.96-.17,1.37,.11l8.45,5.63c.39,.26,.63,.7,.63,1.17v1.41c0,.55-.32,1.05-.82,1.28l-18.31,8.45c-.19,.09-.39,.13-.59,.13Zm-6.82-7.65l6.95,4.63,16.55-7.64-6.95-4.63-16.55,7.64Z"/><path class="d" d="M28.16,67.59c-.2,0-.4-.04-.59-.13l-18.31-8.45c-.5-.23-.82-.73-.82-1.28v-7.04h2.82v6.14l16.9,7.8,16.9-7.8v-6.14h2.82v7.04c0,.55-.32,1.05-.82,1.28l-18.31,8.45c-.19,.09-.39,.13-.59,.13Z"/><path class="d" d="M46.47,40.84c-.2,0-.4-.04-.59-.13l-4.92-2.27c-.71-.33-1.01-1.16-.69-1.87s1.16-1.01,1.87-.69l4.37,2.02,5.08-2.03-10.15-4.69c-.71-.33-1.01-1.16-.69-1.87,.33-.71,1.16-1.01,1.87-.69l11.49,5.3c.5,.23,.82,.73,.82,1.28v1.41c0,.58-.35,1.09-.89,1.31l-7.04,2.82c-.17,.07-.35,.1-.52,.1Z"/><path class="d" d="M10,40.84c-.18,0-.35-.03-.52-.1l-7.04-2.82c-.53-.21-.89-.73-.89-1.31v-1.41c0-.55,.32-1.05,.82-1.28l12.21-5.64c.71-.33,1.54-.02,1.87,.69,.33,.71,.02,1.54-.69,1.87l-10.87,5.02,5.07,2.03,4.75-2.19c.71-.33,1.54-.02,1.87,.69s.02,1.54-.69,1.87l-5.3,2.45c-.19,.09-.39,.13-.59,.13Z"/><rect class="d" x="26.76" y="49.29" width="2.82" height="16.9"/><path class="d" d="M19.72,56.33c-.2,0-.4-.04-.59-.13L.82,47.75c-.5-.23-.82-.73-.82-1.28v-1.41c0-.47,.24-.91,.63-1.17l8.45-5.63c.41-.27,.93-.31,1.37-.11l18.31,8.45c.5,.23,.82,.73,.82,1.28v1.41c0,.47-.24,.91-.63,1.17l-8.45,5.63c-.24,.16-.51,.24-.78,.24ZM3.04,45.67l16.55,7.64,6.95-4.63-16.55-7.64-6.95,4.63Z"/><path class="d" d="M35.21,39.43c-.78,0-1.41-.63-1.41-1.41,0-17.57,5.73-24.89,10.54-27.94,3.09-1.96,7.49-2.19,10.48-.55,1.84,1.01,2.85,2.61,2.85,4.5,0,2.23-1.04,4.03-2.86,4.94-2.01,1.01-4.63,.73-6.54-.69-.62-.46-.75-1.35-.29-1.97,.46-.62,1.35-.75,1.97-.29,1.05,.78,2.53,.96,3.59,.43,.86-.43,1.31-1.27,1.31-2.42,0-.84-.47-1.52-1.4-2.03-1.81-1-5.15-1.1-7.61,.46-4.21,2.67-9.23,9.27-9.23,25.57,0,.78-.63,1.41-1.41,1.41Z"/><path class="d" d="M22.53,40.84c-.78,0-1.41-.63-1.41-1.41,0-17.35-6.83-20.7-9.07-21.8-1.98-.97-4.55-.98-6.55-.03-1.39,.66-2.3,1.7-2.59,2.94-.27,1.19,.39,2.15,1.16,2.45,.89,.35,1.49-.3,1.84-.9,.39-.67,1.25-.91,1.92-.51,.67,.39,.9,1.25,.51,1.92-1.2,2.08-3.29,2.91-5.31,2.11-2.18-.86-3.42-3.31-2.87-5.7,.48-2.09,1.94-3.81,4.12-4.85,2.79-1.33,6.24-1.31,9,.04,7.16,3.51,10.65,11.47,10.65,24.33,0,.78-.63,1.41-1.41,1.41Z"/><rect class="d" x="19.13" y="12.67" width="3.98" height="2.82" transform="translate(-3.77 19.06) rotate(-45)"/><rect class="d" x="26.17" y="5.63" width="3.98" height="2.82" transform="translate(3.27 21.98) rotate(-45)"/><rect class="d" x="26.76" y="12.09" width="2.82" height="3.98" transform="translate(-1.71 24.04) rotate(-45)"/><rect class="d" x="19.72" y="5.05" width="2.82" height="3.98" transform="translate(1.21 17) rotate(-45)"/><rect class="d" x="26.76" y="21.12" width="2.82" height="2.82"/><rect class="d" x="26.76" y="26.76" width="2.82" height="2.82"/><rect class="d" x="23.94" y="23.94" width="2.82" height="2.82"/><rect class="d" x="29.57" y="23.94" width="2.82" height="2.82"/><rect class="d" x="5.63" y="0" width="2.82" height="2.82"/><rect class="d" x="5.63" y="5.63" width="2.82" height="2.82"/><rect class="d" x="2.82" y="2.82" width="2.82" height="2.82"/><rect class="d" x="8.45" y="2.82" width="2.82" height="2.82"/><path class="d" d="M36.61,11.27c-.25,0-.5-.06-.72-.2-.67-.4-.89-1.26-.49-1.93C38,4.79,41.66,1.66,45.99,.09c.73-.27,1.54,.11,1.8,.84,.27,.73-.11,1.54-.84,1.8-3.71,1.35-6.87,4.06-9.13,7.85-.26,.44-.73,.69-1.21,.69Z"/></g></g></g></svg>